# xmcd CD database file
#
# Track frame offsets:
#	150
#	20102
#	36762
#	51773
#	65171
#	79635
#	102778
#	117159
#	132298
#	146377
#	165832
#	181744
#
# Disc length: 2702 seconds
#
# Revision: 0
# Processed by: cddbd v1.5.2PL0 Copyright (c) Steve Scherf et al.
# Submitted via: ACXtractor (MTCDDB.DLL V2003.07.15)
#
DISCID=970a8c0c
DTITLE=Norma O'Hara Murphy - River Gums and Mallee Dust
DYEAR=1994
DGENRE=Country
TTITLE0=Murray River Blues
TTITLE1=When We Were Kids
TTITLE2=Rain on the Roof
TTITLE3=Billy of Tea
TTITLE4=Saturday Dance
TTITLE5=Child of Koonapippi
TTITLE6=Saturday Footy
TTITLE7=The Kellys are Gone
TTITLE8=Mallee Girl Mallee Boy
TTITLE9=Darlin' Billy
TTITLE10=Kakadu Man
TTITLE11=River Gums and Mallee Dust
EXTD=ID3G:   2 YEAR: 1994
EXTT0=
EXTT1=
EXTT2=
EXTT3=
EXTT4=
EXTT5=
EXTT6=
EXTT7=
EXTT8=
EXTT9=
EXTT10=
EXTT11=
PLAYORDER=
